<svg width="191" height="47" viewBox="0 0 191 47" fill="none" xmlns="http://www.w3.org/2000/svg">
<path d="M20.412 29.644V34H2.664V8.44H20.088V12.796H7.632V18.952H18.396V22.984H7.632V29.644H20.412ZM34.9436 19.312C33.4796 19.312 32.1716 19.6 31.0196 20.176C29.8676 20.728 29.0396 21.532 28.5356 22.588V34H23.7116V15.136H28.1396V19.168C28.8116 17.872 29.6636 16.852 30.6956 16.108C31.7276 15.364 32.8196 14.956 33.9716 14.884C34.2356 14.884 34.4396 14.884 34.5836 14.884C34.7276 14.884 34.8476 14.896 34.9436 14.92V19.312ZM36.232 28.42C36.232 27.196 36.568 26.128 37.24 25.216C37.936 24.28 38.896 23.56 40.12 23.056C41.344 22.552 42.748 22.3 44.332 22.3C45.124 22.3 45.928 22.36 46.744 22.48C47.56 22.6 48.268 22.792 48.868 23.056V22.048C48.868 20.848 48.508 19.924 47.788 19.276C47.092 18.628 46.048 18.304 44.656 18.304C43.624 18.304 42.64 18.484 41.704 18.844C40.768 19.204 39.784 19.732 38.752 20.428L37.204 17.26C38.452 16.444 39.724 15.832 41.02 15.424C42.34 15.016 43.72 14.812 45.16 14.812C47.848 14.812 49.936 15.484 51.424 16.828C52.936 18.172 53.692 20.092 53.692 22.588V28.6C53.692 29.104 53.776 29.464 53.944 29.68C54.136 29.896 54.436 30.028 54.844 30.076V34C54.412 34.072 54.016 34.132 53.656 34.18C53.32 34.228 53.032 34.252 52.792 34.252C51.832 34.252 51.1 34.036 50.596 33.604C50.116 33.172 49.816 32.644 49.696 32.02L49.588 31.048C48.772 32.104 47.752 32.92 46.528 33.496C45.304 34.072 44.056 34.36 42.784 34.36C41.536 34.36 40.408 34.108 39.4 33.604C38.416 33.076 37.636 32.368 37.06 31.48C36.508 30.568 36.232 29.548 36.232 28.42ZM47.968 29.392C48.232 29.104 48.448 28.816 48.616 28.528C48.784 28.24 48.868 27.976 48.868 27.736V25.828C48.292 25.588 47.668 25.408 46.996 25.288C46.324 25.144 45.688 25.072 45.088 25.072C43.84 25.072 42.808 25.348 41.992 25.9C41.2 26.428 40.804 27.136 40.804 28.024C40.804 28.504 40.936 28.96 41.2 29.392C41.464 29.824 41.848 30.172 42.352 30.436C42.856 30.7 43.456 30.832 44.152 30.832C44.872 30.832 45.58 30.7 46.276 30.436C46.972 30.148 47.536 29.8 47.968 29.392ZM59.1865 8.44L66.0985 28.096L72.9385 8.44H78.1585L68.4745 34H63.6865L53.9665 8.44H59.1865ZM86.6346 34.36C85.0986 34.36 83.7186 34.108 82.4946 33.604C81.2706 33.076 80.2266 32.356 79.3626 31.444C78.5226 30.532 77.8746 29.488 77.4186 28.312C76.9626 27.136 76.7346 25.9 76.7346 24.604C76.7346 23.284 76.9626 22.036 77.4186 20.86C77.8746 19.684 78.5226 18.64 79.3626 17.728C80.2266 16.816 81.2706 16.108 82.4946 15.604C83.7186 15.076 85.0986 14.812 86.6346 14.812C88.1706 14.812 89.5386 15.076 90.7386 15.604C91.9626 16.108 93.0066 16.816 93.8706 17.728C94.7346 18.64 95.3826 19.684 95.8146 20.86C96.2706 22.036 96.4986 23.284 96.4986 24.604C96.4986 25.9 96.2706 27.136 95.8146 28.312C95.3826 29.488 94.7346 30.532 93.8706 31.444C93.0306 32.356 91.9986 33.076 90.7746 33.604C89.5506 34.108 88.1706 34.36 86.6346 34.36ZM81.7026 24.604C81.7026 25.708 81.9186 26.692 82.3506 27.556C82.7826 28.396 83.3706 29.056 84.1146 29.536C84.8586 30.016 85.6986 30.256 86.6346 30.256C87.5466 30.256 88.3746 30.016 89.1186 29.536C89.8626 29.032 90.4506 28.36 90.8826 27.52C91.3386 26.656 91.5666 25.672 91.5666 24.568C91.5666 23.488 91.3386 22.516 90.8826 21.652C90.4506 20.788 89.8626 20.116 89.1186 19.636C88.3746 19.156 87.5466 18.916 86.6346 18.916C85.6986 18.916 84.8586 19.168 84.1146 19.672C83.3706 20.152 82.7826 20.824 82.3506 21.688C81.9186 22.528 81.7026 23.5 81.7026 24.604ZM99.7546 34V15.136H104.579V34H99.7546ZM99.7546 12.508V7.72H104.579V12.508H99.7546ZM117.714 34.36C116.178 34.36 114.798 34.108 113.574 33.604C112.35 33.076 111.306 32.356 110.442 31.444C109.578 30.508 108.906 29.452 108.426 28.276C107.97 27.1 107.742 25.864 107.742 24.568C107.742 22.792 108.138 21.172 108.93 19.708C109.746 18.22 110.898 17.032 112.386 16.144C113.874 15.256 115.638 14.812 117.678 14.812C119.718 14.812 121.47 15.256 122.934 16.144C124.398 17.032 125.49 18.196 126.21 19.636L121.494 21.076C121.086 20.38 120.546 19.852 119.874 19.492C119.202 19.108 118.458 18.916 117.642 18.916C116.73 18.916 115.89 19.156 115.122 19.636C114.378 20.092 113.79 20.752 113.358 21.616C112.926 22.456 112.71 23.44 112.71 24.568C112.71 25.672 112.926 26.656 113.358 27.52C113.814 28.36 114.414 29.032 115.158 29.536C115.902 30.016 116.73 30.256 117.642 30.256C118.218 30.256 118.758 30.16 119.262 29.968C119.79 29.776 120.258 29.512 120.666 29.176C121.074 28.84 121.374 28.456 121.566 28.024L126.282 29.464C125.85 30.4 125.214 31.24 124.374 31.984C123.558 32.728 122.586 33.316 121.458 33.748C120.354 34.156 119.106 34.36 117.714 34.36ZM137.823 34.36C136.311 34.36 134.943 34.108 133.719 33.604C132.495 33.076 131.451 32.368 130.587 31.48C129.723 30.568 129.051 29.536 128.571 28.384C128.115 27.208 127.887 25.972 127.887 24.676C127.887 22.876 128.283 21.232 129.075 19.744C129.891 18.256 131.043 17.068 132.531 16.18C134.043 15.268 135.819 14.812 137.859 14.812C139.923 14.812 141.687 15.268 143.151 16.18C144.615 17.068 145.731 18.256 146.499 19.744C147.291 21.208 147.687 22.792 147.687 24.496C147.687 24.784 147.675 25.084 147.651 25.396C147.627 25.684 147.603 25.924 147.579 26.116H132.999C133.095 27.076 133.371 27.916 133.827 28.636C134.307 29.356 134.907 29.908 135.627 30.292C136.371 30.652 137.163 30.832 138.003 30.832C138.963 30.832 139.863 30.604 140.703 30.148C141.567 29.668 142.155 29.044 142.467 28.276L146.607 29.428C146.151 30.388 145.491 31.24 144.627 31.984C143.787 32.728 142.791 33.316 141.639 33.748C140.487 34.156 139.215 34.36 137.823 34.36ZM132.891 23.056H142.755C142.659 22.096 142.383 21.268 141.927 20.572C141.495 19.852 140.919 19.3 140.199 18.916C139.479 18.508 138.675 18.304 137.787 18.304C136.923 18.304 136.131 18.508 135.411 18.916C134.715 19.3 134.139 19.852 133.683 20.572C133.251 21.268 132.987 22.096 132.891 23.056ZM157.574 34.36C155.966 34.36 154.43 34.096 152.966 33.568C151.502 33.04 150.242 32.26 149.186 31.228L150.914 28.096C152.042 29.008 153.146 29.68 154.226 30.112C155.33 30.544 156.386 30.76 157.394 30.76C158.33 30.76 159.074 30.592 159.626 30.256C160.202 29.92 160.49 29.416 160.49 28.744C160.49 28.288 160.334 27.94 160.022 27.7C159.71 27.436 159.254 27.208 158.654 27.016C158.078 26.824 157.37 26.608 156.53 26.368C155.138 25.912 153.974 25.468 153.038 25.036C152.102 24.604 151.394 24.064 150.914 23.416C150.458 22.744 150.23 21.892 150.23 20.86C150.23 19.612 150.542 18.544 151.166 17.656C151.814 16.744 152.702 16.036 153.83 15.532C154.982 15.028 156.326 14.776 157.862 14.776C159.206 14.776 160.478 14.992 161.678 15.424C162.878 15.832 163.97 16.504 164.954 17.44L163.01 20.5C162.05 19.756 161.138 19.216 160.274 18.88C159.41 18.52 158.534 18.34 157.646 18.34C157.142 18.34 156.662 18.4 156.206 18.52C155.774 18.64 155.414 18.844 155.126 19.132C154.862 19.396 154.73 19.78 154.73 20.284C154.73 20.74 154.85 21.1 155.09 21.364C155.354 21.604 155.738 21.82 156.242 22.012C156.77 22.204 157.406 22.42 158.15 22.66C159.662 23.092 160.934 23.536 161.966 23.992C163.022 24.448 163.814 25.012 164.342 25.684C164.87 26.332 165.134 27.232 165.134 28.384C165.134 30.256 164.45 31.72 163.082 32.776C161.714 33.832 159.878 34.36 157.574 34.36Z" fill="black"/>
<path d="M172.66 23.0208L161.22 37.3208C161.066 37.5124 160.988 37.7539 161.001 37.9992C161.014 38.2445 161.117 38.4764 161.29 38.6508L165.29 42.6508C165.383 42.7435 165.494 42.8168 165.616 42.8666C165.738 42.9163 165.868 42.9416 166 42.9408C166.226 42.9395 166.444 42.862 166.62 42.7208L180.92 31.2808L172.66 23.0208ZM173.66 31.6508C173.567 31.7445 173.456 31.8189 173.335 31.8697C173.213 31.9205 173.082 31.9466 172.95 31.9466C172.818 31.9466 172.687 31.9205 172.565 31.8697C172.444 31.8189 172.333 31.7445 172.24 31.6508C172.146 31.5578 172.072 31.4472 172.021 31.3254C171.97 31.2035 171.944 31.0728 171.944 30.9408C171.944 30.8088 171.97 30.6781 172.021 30.5562C172.072 30.4344 172.146 30.3238 172.24 30.2308L174.24 28.2308C174.333 28.1376 174.444 28.0636 174.566 28.0132C174.688 27.9627 174.818 27.9367 174.95 27.9367C175.082 27.9367 175.212 27.9627 175.334 28.0132C175.456 28.0636 175.567 28.1376 175.66 28.2308C175.753 28.3241 175.827 28.4347 175.878 28.5566C175.928 28.6784 175.954 28.809 175.954 28.9408C175.954 29.0727 175.928 29.2032 175.878 29.3251C175.827 29.4469 175.753 29.5576 175.66 29.6508L173.66 31.6508Z" fill="black"/>
<path d="M187.31 27.8408C188.481 26.3007 189.054 24.3885 188.923 22.4584C188.792 20.5283 187.966 18.7111 186.598 17.3432C185.23 15.9752 183.413 15.1493 181.483 15.0184C179.552 14.8874 177.64 15.4602 176.1 16.6308L187.31 27.8408Z" fill="black"/>
<path d="M185.9 29.2508C185.072 29.8897 184.128 30.3618 183.12 30.6408L181.71 29.2308L174.71 22.2308L173.3 20.8208C173.579 19.8129 174.051 18.8688 174.69 18.0408L185.9 29.2508Z" fill="black"/>
</svg>
