<svg width="32" height="32" viewBox="0 0 32 32" fill="none" xmlns="http://www.w3.org/2000/svg">
<g clip-path="url(#clip0_263_2)">
<path d="M13.3539 9.18604L0.251972 25.5635C0.0759262 25.7829 -0.0132017 26.0595 0.00158405 26.3404C0.0163698 26.6213 0.134035 26.887 0.332141 27.0867L4.91325 31.6678C5.02026 31.774 5.14718 31.8579 5.28672 31.9149C5.42626 31.9719 5.57567 32.0008 5.7264 32C5.98473 31.9985 6.23497 31.9097 6.43647 31.748L22.8139 18.646L13.3539 9.18604ZM14.4992 19.0698C14.3928 19.1771 14.2661 19.2623 14.1265 19.3205C13.987 19.3786 13.8373 19.4085 13.6861 19.4085C13.5349 19.4085 13.3852 19.3786 13.2456 19.3205C13.1061 19.2623 12.9794 19.1771 12.8729 19.0698C12.7656 18.9633 12.6804 18.8366 12.6222 18.6971C12.5641 18.5575 12.5342 18.4078 12.5342 18.2566C12.5342 18.1054 12.5641 17.9557 12.6222 17.8162C12.6804 17.6766 12.7656 17.55 12.8729 17.4435L15.1635 15.1529C15.2703 15.0461 15.397 14.9614 15.5366 14.9036C15.6761 14.8459 15.8256 14.8161 15.9766 14.8161C16.1276 14.8161 16.2772 14.8459 16.4167 14.9036C16.5562 14.9614 16.683 15.0461 16.7898 15.1529C16.8966 15.2597 16.9813 15.3865 17.0391 15.526C17.0968 15.6655 17.1266 15.8151 17.1266 15.9661C17.1266 16.1171 17.0968 16.2666 17.0391 16.4061C16.9813 16.5457 16.8966 16.6724 16.7898 16.7792L14.4992 19.0698Z" fill="#212B33"/>
<path d="M30.1323 14.7063C31.4729 12.9424 32.129 10.7524 31.979 8.54195C31.829 6.33146 30.8831 4.25021 29.3164 2.68356C27.7498 1.11692 25.6685 0.171027 23.4581 0.0210324C21.2476 -0.128962 19.0576 0.527105 17.2937 1.86775L30.1323 14.7063Z" fill="#212B33"/>
<path d="M28.5174 16.3212C27.5691 17.0529 26.4878 17.5935 25.3335 17.9131L23.7187 16.2983L15.7018 8.28132L14.0869 6.66648C14.4065 5.51216 14.9472 4.43087 15.6788 3.4826L28.5174 16.3212Z" fill="#212B33"/>
</g>
<defs>
<clipPath id="clip0_263_2">
<rect width="32" height="32" fill="white"/>
</clipPath>
</defs>
</svg>
